<svg width="32" height="32" viewBox="0 0 32 32" fill="none" xmlns="http://www.w3.org/2000/svg">
<rect width="32" height="32" rx="6" fill="#07C160"/>
<path d="M12.5 10C9.46243 10 7 12.2386 7 15C7 16.3807 7.6193 17.6193 8.61929 18.5L8 22L11.5 20.3807C11.8193 20.4614 12.1579 20.5 12.5 20.5C15.5376 20.5 18 18.2614 18 15.5C18 12.7386 15.5376 10 12.5 10Z" fill="white"/>
<circle cx="10.5" cy="14.5" r="1" fill="#07C160"/>
<circle cx="14.5" cy="14.5" r="1" fill="#07C160"/>
<path d="M19.5 14C17.567 14 16 15.3431 16 17C16 17.8824 16.4118 18.6863 17.0588 19.2745L16.6 21.5L19.2 20.3529C19.4314 20.4118 19.6745 20.4412 19.9216 20.4412C21.8549 20.4412 23.4216 19.098 23.4216 17.4412C23.4216 15.7843 21.8549 14.4412 19.9216 14.4412C19.7843 14.4412 19.6471 14.451 19.5 14.4706V14Z" fill="white"/>
<circle cx="18.5" cy="17" r="0.7" fill="#07C160"/>
<circle cx="21.5" cy="17" r="0.7" fill="#07C160"/>
</svg>