<?xml version="1.0" encoding="utf-8" ?><svg xmlns="http://www.w3.org/2000/svg" xmlns:xlink="http://www.w3.org/1999/xlink" width="766" height="766" viewBox="0 0 766 766"><path fill="white" transform="scale(1.532 1.532)" d="M0 0L500 0L500 500L0 500L0 0Z"/><path fill="#FE8E0A" transform="scale(1.532 1.532)" d="M294.372 175.548C299.231 175.191 299.392 179.112 294.037 180.038C284.077 181.762 277.732 187.055 270.925 194.007L312.218 194.012C317.699 194.009 323.182 193.972 328.657 194.061C332.448 194.122 335.337 195.015 338.059 197.769C339.435 199.143 341.201 201.545 341.484 203.481C342.322 209.219 341.993 215.953 341.989 221.717L341.997 254.083C350.135 254.151 358.697 253.707 366.81 254.311C370.057 254.552 372.238 258.234 371.563 261.213C371.164 262.974 369.645 265.003 367.837 265.551C365.879 266.227 361.689 265.311 361.348 268.163C361.271 268.846 361.499 269.528 361.97 270.028C363.461 271.583 367.287 271.24 369.373 271.205C376.357 271.087 383.345 271.156 390.33 271.09C392.415 271.07 394.84 271.054 396.394 272.62C396.228 274.009 394.104 274.456 392.909 274.475C389.056 274.539 385.179 274.492 381.32 274.499C375.578 274.508 369.813 274.621 364.076 274.456C362.229 274.399 360.418 273.804 359.229 272.311C358.176 270.991 357.721 269.291 357.973 267.621C358.946 261.557 364.031 263.427 367.383 261.854C368.694 261.239 368.569 257.736 365.702 257.548C363.075 257.376 360.21 257.416 357.375 257.423L341.915 257.434C342.048 263.304 342.006 269.398 342.005 275.099C342.002 284.344 335.232 289.445 326.482 288.982C324.332 288.868 321.43 288.998 319.2 288.996L300.386 288.975C275.572 288.962 249.539 288.577 224.821 289.053C216.04 299.047 204.947 303.028 191.985 304.958L191.561 305.035C188.533 305.565 171.27 307.645 171.137 303.622C172.474 301.468 177.67 301.976 180.078 301.94C193.539 301.743 208.293 298.311 218.545 289.139C217.891 289.216 217.233 289.266 216.575 289.29C206.092 289.705 195.058 288.99 184.583 289.36C172.84 289.776 165.784 286.286 165.99 273.169C166.06 268.692 166.003 263.662 166.007 259.238L166.011 219.056C160.701 218.973 146.99 220.852 144.755 215.615C140.892 206.562 153.56 208.076 154.798 204.732C154.665 203.604 153.779 202.247 152.557 202.133C149.905 201.887 147.15 201.976 144.479 201.969L123.615 201.996C120.505 202.008 113.246 202.253 110.613 201.628C109.829 200.718 109.582 199.75 110.578 198.888C112.946 198.314 118.026 198.505 120.703 198.517L135.108 198.568C140.75 198.553 146.664 198.265 152.268 198.617C157.623 198.953 160.224 205.6 155.776 209.13C153.17 211.198 148.501 209.438 147.676 212.785C146.996 216.636 154.122 215.621 156.372 215.593L166.042 215.57C165.881 209.397 165.034 203.001 169.514 198.173C174.243 193.077 180.735 194.005 187.063 194.012L202.669 194.033C223.137 194.043 244.491 194.319 264.893 193.969C266.913 191.988 268.888 189.653 270.992 187.607C278.05 180.746 284.84 177.524 294.372 175.548Z"/><path fill="white" transform="scale(1.532 1.532)" d="M179.25 198.092C180.369 198.014 181.863 197.98 183.002 197.98C215.61 197.98 248.235 197.987 280.841 197.989L312.024 197.982C317.93 197.97 324.096 197.756 329.867 198.252C334.078 198.613 337.489 202.034 337.798 206.131C338.188 211.307 338.033 216.944 338.031 222.132L338.036 254.067L329.616 254.077C329.64 252.291 330.009 250.559 327.964 249.878C325.941 250.456 326.221 252.377 326.216 254.067L312.541 254.07C312.564 252.187 312.683 250.564 310.809 249.419L310.233 249.622C308.783 251.473 309.087 255.577 309.118 257.89C309.216 265.307 308.007 270.119 317.395 270.347C330.191 270.658 329.581 268.395 329.642 257.482C332.435 257.439 335.227 257.436 338.02 257.475C337.994 261.418 338.095 265.37 338.067 269.303C338.036 273.803 338.732 278.752 335.265 282.257C332.392 285.161 329.349 285.021 325.615 285.029L225.199 285.023L194.332 285.042C189.069 285.044 183.602 285.182 178.452 284.878C174.059 284.618 170.615 281.062 170.267 276.815C169.758 270.61 169.964 263.897 169.965 257.684L169.927 219.01C181.882 219.203 194.334 219.026 206.327 219.028L217.089 219.036C219.11 219.036 224.568 219.87 223.42 216.6C221.56 215 216.444 215.566 213.937 215.601C210.654 215.622 207.371 215.627 204.089 215.615C192.835 215.607 181.183 215.401 169.98 215.678C169.897 207.418 168.737 199.635 179.25 198.092Z"/><path fill="#FE8E0A" transform="scale(1.532 1.532)" d="M199.86 224.177C200.73 224.267 201.055 224.221 201.754 224.751C202.776 226.463 202.33 230.445 202.284 232.697C206.74 232.627 212.714 231.995 216.241 235.561C221.885 241.498 218.428 253.544 219.393 261.002C220.917 272.765 209.56 270.299 201.625 270.243L196.283 270.275C183.248 270.357 181.8 271.361 181.796 257.466L181.794 246.245C181.877 233.084 187.504 232.594 198.97 232.675C198.893 230.237 198.364 225.855 199.86 224.177Z"/><path fill="white" transform="scale(1.532 1.532)" d="M185.214 253.144C194.373 253.573 206.557 253.171 215.999 253.226C216.021 256.66 216.322 262.972 215.445 266.011C213.061 267.486 203.315 266.62 199.917 266.842C198.057 266.963 186.601 267.078 185.989 265.982C184.737 263.739 185.197 256.16 185.214 253.144Z"/><path fill="white" transform="scale(1.532 1.532)" d="M192.686 236.122L192.919 236.118C196.773 236.075 201.11 236.153 204.906 236.047C216.516 235.725 216.012 240.193 216.047 249.744L208.625 249.75L185.229 249.797C185.179 243.232 184.023 236.719 192.686 236.122Z"/><path fill="#FE8E0A" transform="scale(1.532 1.532)" d="M249.876 211.422C250.594 211.464 251.562 211.435 251.961 212.025C252.934 213.465 252.479 218.079 252.481 219.982C256.743 219.954 271.4 219.019 274.275 221.146C275.339 221.933 276.273 223.235 276.45 224.565C276.76 226.901 276.595 229.429 276.595 231.784L276.593 244.096L276.615 257.774C276.616 260.28 276.667 262.747 276.484 265.25C276.264 268.243 271.75 271.873 269.217 269.375C268.177 265.984 273.175 267.322 273.198 264.531C273.302 251.929 273.3 239.304 273.185 226.702C273.151 223 271.109 223.345 268.064 223.208C267.825 237.129 268.318 251.14 267.972 265.063C267.875 268.988 262.005 271.819 260.409 269.1C260.535 266.333 262.493 267.028 263.909 265.972C265.061 264.207 264.755 261.905 264.722 259.765L264.718 223.309L259.494 223.259C259.764 235.495 259.303 247.881 259.533 260.132C259.556 261.376 259.769 263.281 259.641 264.434C259.524 265.409 259.205 266.349 258.704 267.193C257.638 268.966 254.657 271.253 252.569 269.911C252.021 269.162 252.08 269.129 252.002 268.232C252.929 266.423 256.092 266.651 256.141 264.278C256.231 259.932 256.183 255.563 256.178 251.213L256.188 223.287C254.979 223.32 253.653 223.267 252.435 223.243C252.461 227.526 252.507 231.793 252.525 236.093C252.537 238.848 252.294 242.371 249.477 243.807C248.171 244.473 247.178 244.946 245.73 244.535C243.51 242.417 245.667 241.355 247.532 240.812C248.815 240.438 249.081 238.695 249.103 237.448C249.246 229.303 248.746 221.081 249.153 212.948C249.179 212.43 249.593 211.836 249.876 211.422Z"/><path fill="#FE8E0A" transform="scale(1.532 1.532)" d="M231.329 211.413C232.025 211.426 232.398 211.505 233.071 211.624C235.832 213.891 231.849 225.152 235.544 227.665C235.691 227.628 235.838 227.592 235.985 227.555C236.859 223.837 235.049 214.585 237.186 211.718C238.022 211.277 237.602 211.334 238.476 211.461C241.131 213.746 238.342 225.952 240.421 227.566L240.95 227.349C243.018 225.165 240.546 221.745 243.134 220.112C243.966 220.062 244.011 220.001 244.787 220.359C245.024 220.662 245.295 221.032 245.31 221.436C245.52 226.938 245.749 230.389 239.583 231.64L239.647 245.521C242.18 245.399 244.222 244.746 245.571 247.183C244.375 249.556 241.977 248.986 239.572 248.968C239.594 252.172 239.92 267.134 239.33 269.285C238.636 270.097 239.056 269.813 237.996 270.126C237.519 270.032 237.219 270 236.845 269.66C235.693 268.614 236.262 251.675 236.247 248.948C234.459 248.979 231.01 249.379 230.609 247.013C231.479 245.047 234.524 245.454 236.254 245.482C236.302 240.924 236.295 236.366 236.232 231.808C234.199 231.078 231.168 230.071 230.885 227.576C230.531 224.449 229.884 213.791 231.329 211.413Z"/><path fill="#FE8E0A" transform="scale(1.532 1.532)" d="M309.832 211.532C315.249 211.249 322.628 211.257 328.122 211.547C328.903 211.588 329.106 212.024 329.468 212.572C329.511 213.618 329.634 213.157 329.165 214.026C327.461 215.286 323.34 214.812 321.041 214.75L321.057 224.165C329.355 224.05 329.863 227.458 329.624 234.946C329.567 236.725 330.358 241.91 326.711 239.831C324.929 237.524 328.122 230.593 325.024 228.269C323.81 227.357 322.442 227.525 321.034 227.493L321.061 241.259L325.563 241.228C326.87 241.214 327.461 241.152 328.741 241.539C329.4 242.093 329.443 242.059 329.737 242.901C329.273 244.247 327.599 244.644 326.282 244.652C320.974 244.665 315.537 244.838 310.249 244.427C309.094 244.337 309.153 242.828 309.679 241.954C311.412 240.814 315.403 241.23 317.751 241.254C317.635 236.802 317.725 232.072 317.738 227.599C315.656 227.615 314.023 227.754 312.151 226.641C310.183 225.471 308.1 222.698 309.625 220.457C310.582 219.926 310.078 220.064 311.204 220.067C313.855 221.434 311.086 224.189 317.732 224.255C317.673 221.155 317.718 217.907 317.716 214.795C315.389 214.717 310.318 215.61 309.258 213.413C309.284 212.405 309.326 212.441 309.832 211.532Z"/><path fill="#FE8E0A" transform="scale(1.532 1.532)" d="M288.878 249.672C291.787 250.303 291.296 251.438 291.224 254.043L296.358 254.111C296.357 252.503 296.02 250.598 297.686 249.889C298.489 249.966 298.679 249.899 299.308 250.391C300.06 252.386 299.967 264.215 299.368 266.535C297.414 270.065 293.201 271.809 289.939 268.761C286.966 265.755 287.844 260.726 287.727 256.824C287.664 254.72 287.437 251.186 288.878 249.672Z"/><path fill="white" transform="scale(1.532 1.532)" d="M291.194 257.423L296.37 257.46C296.415 259.839 296.636 263.651 295.933 265.801C290.175 269.999 291.17 260.367 291.194 257.423Z"/><path fill="#FE8E0A" transform="scale(1.532 1.532)" d="M284.283 232.833C288.076 232.442 298.632 232.538 302.907 232.929C303.456 232.979 303.7 233.563 303.928 234.004C303.954 235.037 303.925 234.989 303.416 235.921C300.875 236.172 286.632 236.302 284.477 235.852C283.236 234.878 283.455 234.001 284.283 232.833Z"/><path fill="#FE8E0A" transform="scale(1.532 1.532)" d="M284.784 241.319C288.557 241.208 292.43 241.245 296.211 241.234C298.269 241.229 303.788 240.556 304.027 243.21C303.673 244.049 303.637 244.015 302.964 244.573C300.482 244.723 285.559 244.964 284.12 244.158C283.225 242.761 283.55 242.096 284.784 241.319Z"/><path fill="#FE8E0A" transform="scale(1.532 1.532)" d="M284.463 224.293C289.876 224.003 295.693 224.256 301.143 224.198C302.496 224.183 303.473 224.286 303.951 225.631C303.84 226.672 303.86 226.618 303.246 227.466C298.34 227.809 293.05 227.479 288.107 227.61C286.41 227.655 284.136 227.642 283.532 225.849C283.752 224.891 283.779 224.937 284.463 224.293Z"/><path fill="#FE8E0A" transform="scale(1.532 1.532)" d="M293.684 211.372C295.723 211.348 299.021 210.965 299.996 213.19L299.652 213.785C297.799 215.029 296.882 214.8 294.622 214.775C292.763 214.806 288.101 215.209 287.588 212.85C288.719 211.076 291.862 211.373 293.684 211.372Z"/><path fill="white" transform="scale(1.532 1.532)" d="M312.495 257.405C316.679 257.591 321.974 257.452 326.245 257.463C326.284 260.128 326.535 263.581 325.697 266.034C323.114 267.362 320.804 266.652 318.126 266.895C311.029 267.539 312.494 262.561 312.495 257.405Z"/><path fill="#FE8E0A" transform="scale(1.532 1.532)" d="M313.011 157.063C319.948 156.552 322.652 162.289 327.849 166.021C332.904 169.651 327.136 180.933 324.759 184.771C324.159 185.753 323.408 186.634 322.533 187.381C319.944 189.558 317.398 189.657 314.258 189.326C309.752 188.173 307.007 189.881 303.223 187.296C299.137 184.926 299.417 180.692 298.525 177.529C295.695 167.494 297.174 164.775 306.418 160.151C309.029 158.844 309.088 157.685 313.011 157.063Z"/><path fill="white" transform="scale(1.532 1.532)" d="M312.62 161.52C316.553 161.279 317.803 162.939 319.56 166.147C326.06 168.945 326.803 172.394 321.959 177.646C321.547 183.007 319.378 186.474 313.605 184.305C311.798 183 311.04 183.701 308.926 183.739C303.523 183.837 302.439 180.484 303.611 175.756C299.682 169.446 301.383 166.581 308.341 164.715C309.891 162.974 310.464 162.433 312.62 161.52Z"/><path fill="#FE8E0A" transform="scale(1.532 1.532)" d="M219.577 298.084C228.341 297.073 237.534 300.998 243.18 307.732C248.83 314.471 242.984 315.942 237.044 316.73C228.183 317.927 214.161 312.812 210.619 302.493C209.552 299.385 217.247 298.392 219.577 298.084Z"/><path fill="white" transform="scale(1.532 1.532)" d="M221.707 302.353C228.966 302.604 236.294 305.205 240.273 311.637C238.211 312.033 236.709 312.234 234.615 312.451C226.991 312.266 220.435 309.272 215.859 303.145C218.243 302.659 219.249 302.503 221.707 302.353Z"/><path fill="#FE8E0A" transform="scale(1.532 1.532)" d="M271.953 159.986C273.558 160.329 274.485 161.794 274.971 163.288C278.176 173.138 273.478 187.447 263.102 191.097C261.442 190.71 260.556 189.041 260.05 187.535C256.767 177.772 261.587 163.557 271.953 159.986Z"/><path fill="white" transform="scale(1.532 1.532)" d="M270.398 165.409L270.926 165.669C271.535 166.946 271.656 169.448 271.557 170.883C271.126 177.121 269.052 181.442 264.596 185.598L264.201 185.4C263.519 184.094 263.386 181.976 263.431 180.491C263.632 173.977 265.953 169.852 270.398 165.409Z"/></svg>