<?xml version="1.0" encoding="utf-8" ?><svg xmlns="http://www.w3.org/2000/svg" xmlns:xlink="http://www.w3.org/1999/xlink" width="500" height="500" viewBox="0 0 500 500"><path fill="white" d="M0 0L500 0L500 500L0 500L0 0Z"/><path fill="#E90010" d="M278.903 129.861C281.454 129.703 284.738 129.665 287.291 129.761C306.139 130.464 324.758 131.163 343.615 130.289C349.596 130.012 358.486 131.151 362.89 135.609C372.042 144.872 364.867 157.728 365.088 168.763C365.182 173.814 366.305 178.146 367 183.046C367.885 189.28 367.722 195.943 367.133 202.196C366.461 210.415 361.388 219.888 361.524 227.642C361.646 234.551 366.55 240.687 366.908 248.564C367.435 257.276 365.732 265.931 365.313 274.589C365.023 280.579 365.744 286.755 365.768 292.761C365.792 298.575 365.414 304.357 365.377 310.171C365.289 323.99 368.987 337.772 367.092 351.587C365.865 358.57 362.237 368.389 353.723 368.598C346.438 368.777 339.416 365.416 331.987 365.422C322.677 365.431 313.667 368.282 304.412 368.265C301.462 368.26 294.396 366.335 294.835 362.519C294.981 361.348 296.768 359.638 297.659 358.854C301.739 355.262 307.429 355.927 312.441 356.466C324.1 357.33 346.522 364.015 353.543 351.037C362.491 334.496 354.163 311.365 354.236 293.672C354.259 287.903 354.907 282.975 355.963 277.376C356.635 273.813 357.011 270.175 356.869 266.565C356.307 258.809 353.489 251.646 354.117 243.698C355.206 229.917 358.677 216.325 358.295 202.418C358.433 192.523 353.965 183.489 354.72 173.519C354.754 170.855 355.224 168.285 355.708 165.679C356.737 160.148 358.854 154.913 357.44 149.263C355.77 142.586 350.118 143.15 344.787 141.838C339.923 140.64 335.759 137.342 330.596 137.162C324.408 136.875 318.782 138.866 312.499 139.241C305.686 139.914 298.49 137.163 291.791 137.511C276.104 138.325 259.681 145.394 244.414 138.108C243.687 137.761 243.259 137.271 243.06 136.484C243.14 135.932 243.286 135.589 243.671 135.172C247.381 131.159 272.441 130.136 278.903 129.861Z"/><path fill="#E90010" d="M191.98 153.612C193.24 153.553 194.502 153.518 195.763 153.507C206.405 153.36 213.912 153.511 224.33 156.104C228.493 157.141 240.521 154.912 240.927 162.317C241.119 165.811 236.547 167.796 233.568 167.34C226.545 165.47 220.609 162.335 212.996 161.99C210.951 161.897 208.465 161.697 206.463 161.486C204.489 162.288 203.157 163.194 201.437 164.405C201.288 167.155 200.554 171.514 200.233 174.493C201.039 175.559 203.106 178.336 204.126 178.769C211.496 181.847 220.204 178.371 226.352 184.88C232.697 191.595 231.625 197.552 232.066 205.967C232.239 209.263 234.019 213.615 233.662 217.283C233.268 221.33 231.715 227.563 228.671 230.464C226.088 232.646 222.482 233.65 219.113 233.918C209.417 234.691 201.028 229.925 191.188 231.92C186.763 232.818 181.588 232.833 177.078 233.805C174.159 234.435 170.717 234.946 167.74 235.056C165.786 235.04 163.613 232.793 162.459 231.366C157.465 225.462 159.418 217.655 160.226 210.312C160.628 204.705 159.873 196.516 162.801 191.627C163.29 190.81 163.912 190.164 164.886 189.98C165.837 189.8 166.741 189.958 167.52 190.548C168.725 191.462 169.224 193.078 169.367 194.52C169.552 196.395 168.846 198.243 168.661 200.096C168.459 202.125 168.706 204.257 168.619 206.305C168.414 211.114 167.628 215.991 168.398 220.784C168.666 222.455 169.273 223.928 170.753 224.889C174.451 227.29 190.339 223.381 195.77 223.488C197.767 223.528 199.756 223.938 201.749 224.085C204.186 224.266 206.639 224.135 209.074 224.338C212.193 224.598 215.535 225.294 218.636 224.633C220.592 224.217 221.943 223.415 223.027 221.695C223.856 220.38 224.264 218.746 224.352 217.205C224.49 214.766 223.895 212.308 223.798 209.871C223.618 205.394 224.211 200.761 223.181 196.357C222.578 193.778 221.269 191.229 218.917 189.84C216.325 188.31 212.701 187.997 209.757 187.527C201.187 186.156 191.506 184.692 182.873 186.229C179.349 186.856 176.639 188.823 173.742 189.427C172.845 189.614 171.87 189.508 171.119 188.949C170.355 188.38 169.984 187.482 169.928 186.552C169.463 178.804 183.746 179.966 188.195 178.146C190.109 177.363 191.244 176.095 192.527 174.552C192.664 169.171 192.589 165.002 187.828 161.611C184.202 161.832 173.317 163.228 171.582 159.676C171.059 154.139 187.946 153.78 191.98 153.612Z"/><path fill="#E90010" d="M135.043 225.193C141.791 227.19 140.083 237.168 138.45 242.126C137.337 245.507 135.193 252.561 136.222 255.992C136.936 258.374 138.535 260.87 138.471 263.661C138.729 268.911 136.937 274.115 137.584 279.371C138.178 284.207 139.466 288.986 140.5 293.75C141.83 299.661 142.509 305.699 142.525 311.757C142.523 315.332 142.247 318.9 141.701 322.433C140.816 328.451 138.701 338.495 139.668 344.089C142.348 359.589 165.795 358.237 177.551 357.687C182.512 357.454 187.473 357.174 192.388 357.021C198.681 356.863 204.189 356.92 210.445 358.206C213.39 358.811 221.168 360.638 217.613 365.509C216.178 367.473 212.413 368.373 209.953 368.484C202.872 367.377 199.807 362.155 194.684 361.976C188.541 361.762 178.629 366.829 172.28 368.058C170.458 368.451 167.603 368.987 165.707 368.661C156.692 367.11 147.361 366.984 138.428 365.423C135.344 364.884 132.62 362.971 131.249 360.238C125.888 349.554 132.201 339.178 132.667 328.385C132.767 325.819 131.644 320.318 131.209 317.624C130.463 313.106 129.903 308.559 129.531 303.995C128.4 288.645 129.649 274.875 129.948 259.577C130.173 253.121 128.702 246.365 128.869 239.992C128.987 235.47 130.651 227.433 135.043 225.193Z"/><path fill="#E90010" d="M220.332 259.074C224.098 258.956 230.304 258.125 232.316 262.131C232.579 262.655 232.589 263.554 232.299 264.084C229.348 269.474 221.478 266.874 216.678 266.794C215.635 266.781 214.743 267.179 213.787 267.464C210.378 268.483 209.399 271.496 208.033 274.521C208.07 274.584 208.108 274.647 208.146 274.709L208.34 275.021C210.364 278.331 212.249 275.236 215.579 275.503C234.463 277.021 228.644 283.33 228.947 296.252L228.959 296.666C230.066 297.983 230.416 298.353 231.749 299.454C234.549 299.496 236.812 299.84 239.144 301.635C240.627 302.777 242.804 305.494 240.916 307.291C239.965 308.196 239.279 308.51 238.004 308.471C234.034 308.349 230.147 307.257 226.187 306.889C223.229 306.582 220.367 306.455 217.404 306.323C211.383 305.543 207.894 305.429 201.497 305.49C195.611 305.545 185.007 312.3 179.798 307.116C179.375 306.547 179.034 305.197 179.38 304.614C181.741 300.642 187.638 301.191 191.478 299.617C193.489 298.673 194.76 297.345 196.556 295.996C197.571 296.847 198.931 298.291 199.898 299.263C207.135 297.129 211.007 299.96 217.675 298.818C218.264 298.717 219.732 297.638 220.304 297.223C222.033 293.746 222.989 284.203 219.228 283.063C213.252 281.252 206.574 281.798 203.71 288.351C202.576 290.945 199.582 296.525 196.387 294.583C194.076 293.178 197.811 287.374 197.281 285.005C195.858 283.818 191.484 286.075 189.26 285.348C188.21 285.005 186.576 284.795 185.895 283.554C185.538 282.905 185.711 281.858 185.906 281.24C187.348 276.656 193.811 277.555 197.544 276.954C198.001 276.88 199.608 275.896 200.07 275.621C200.509 274.388 201.267 270.423 200.979 269.34C199.019 265.451 189.301 269.475 186.183 267.251C182.445 264.585 185.377 260.176 189.037 259.612C191.971 259.159 194.969 260.382 197.895 260.358C201.254 260.331 204.997 259.667 208.4 259.6C212.491 259.394 216.295 259.841 220.332 259.074Z"/><path fill="#E90010" d="M151.145 130.344C155.749 129.596 161.445 130.18 166.006 131.063C169.309 131.702 172.63 132.554 176.008 132.632C183.072 132.797 190.12 130.805 197.16 130.306C202.939 129.897 210.279 129.93 214.855 134.1C215.539 134.723 216.203 135.549 216.146 136.53C216.108 137.191 215.765 137.707 215.307 138.159C212.379 141.05 190.345 139.837 185.452 139.078C181.697 138.495 178.019 136.992 174.222 136.786C168.142 136.457 162.212 139.311 156.288 140.276C153.457 140.737 150.528 140.389 147.74 141.182C145.582 141.796 143.617 142.847 141.956 144.363C137.514 148.418 136.495 153.838 136.261 159.588C136.161 169.175 138.318 177.474 140.533 186.683C142.317 194.575 144.517 205.041 140.258 212.465C139.018 214.626 134.636 218.974 131.997 216.805C129.481 214.738 130.062 207.522 130.027 204.487C129.98 201.153 129.89 197.82 129.757 194.488C129.341 182.348 126.346 147.699 133.615 138.524C137.685 133.387 144.875 131.024 151.145 130.344Z"/><path fill="#E90010" d="M276.969 147.515C283.496 147.445 282.691 153.006 282.626 157.825C282.571 161.87 282.129 165.769 281.622 169.773C283.891 169.437 286.166 169.464 288.121 170.574C292.117 172.843 289.211 176.501 286.035 177.516C284.313 178.066 283.372 178.208 281.699 178.44C278.016 182.799 278.829 185.593 279.951 190.799C281.363 190.039 283.146 189.145 284.716 189.529C288.076 190.352 285.672 195.053 284.069 196.401C282.938 197.352 281.891 197.994 280.749 198.727C280.031 200.881 280.1 201.052 280.14 203.304C280.289 211.772 281.364 220.411 278.872 228.652C276.704 235.821 267.708 239.263 261.868 234.246C258.663 231.649 255.682 225.919 258.677 222.243C260.933 219.472 263.886 224.196 265.24 225.814C270.034 231.538 273.257 225.019 273.305 220.168C273.337 216.995 273.222 213.738 273.29 210.574C273.543 208.002 273.495 206.018 273.458 203.45C270.881 204.668 267.507 206.401 264.444 208.15C259.696 210.863 252.581 212.484 254.424 203.839C254.647 203.199 255.819 201.725 256.431 201.536C262.141 199.763 267.33 196.921 272.756 194.651C274.073 191.378 275.625 181.775 272.607 179.423C270.692 178.821 267.265 180.055 264.934 180.399L264.605 180.445C264.03 181.086 263.178 182.011 262.826 182.775C261.756 185.104 261.5 188.643 259.196 190.109C255.199 190.156 257.762 166.789 257.578 163.416C257.576 162.174 258.226 158.438 259.35 157.93C269.954 153.129 265.457 167.203 264.529 171.508C265.756 171.601 271.355 172.195 272.124 171.55C278.303 166.366 269.006 151.56 276.969 147.515Z"/><path fill="#E90010" d="M306.994 150.261C309.393 150.065 311.364 150.626 312.198 153.204C313.564 157.426 311.988 160.903 310.201 164.666C319.336 161.268 328.164 162.206 337.129 165.396C341.61 166.99 347.906 173.442 346.103 178.528C345.439 180.4 344.42 182.98 344.375 184.88C344.313 187.56 345.952 190.362 346.301 193.014C346.6 200.913 344.117 211.183 341.309 218.574C340.589 220.466 339.161 222.382 338.088 223.939C329.941 235.767 326.008 240.062 312.956 230.322C311.52 229.25 309.34 226.038 311.263 224.326C312.519 223.208 314.659 223.462 316.238 223.507C319.754 224.486 322.835 227.035 326.185 224.612C330.893 221.206 335.459 209.557 336.043 204.107C337.021 194.973 339.518 182.102 335.029 173.813C333.141 171.043 329.872 170.303 326.897 169.735C322.459 171.11 320.649 173.359 317.26 176.484C316.125 174.946 314.893 172.76 313.886 171.085C310.205 172.175 309.193 172.226 305.378 172.478C303.122 175.27 298.809 181.402 294.461 181.188C292.454 181.09 292.004 178.424 292.919 176.731C294.317 174.143 296.58 172.103 298.216 169.658C301.465 164.776 302.94 159.003 304.362 153.392C304.808 151.639 305.467 151.05 306.994 150.261Z"/><path fill="#E90010" d="M211.084 311.601C216.262 311.515 222.783 312.344 227.65 314.126C234.795 317.055 234.106 324.228 234.269 329.935C234.716 345.626 226.077 342.292 214.639 342.29C213.073 342.229 211.381 343.105 209.87 343.182C205.842 343.39 198.779 343.867 195.117 345.193L194.714 345.341C192.033 344.616 188.688 343.473 187.591 340.589C184.901 333.511 185.265 326.495 187.907 319.476C188.694 318.361 190.235 317.005 191.676 317.207C195.367 319.558 191.843 330.336 194.436 334.415C196.402 337.509 206.857 336.106 210.291 335.803C210.852 335.754 212.804 336.437 213.342 336.62C216.838 335.203 219.831 335.239 223.454 334.487C228.366 333.467 227.268 320.975 224.043 320.593C218.858 319.98 212.704 319.217 207.275 319.192C204.891 319.181 194.357 322.868 197.027 315.197C198.337 312.024 206.22 312.619 208.854 312.046C209.539 311.897 210.276 311.725 211.084 311.601Z"/><path fill="#E90010" d="M163.046 284.55C167.726 284.072 170.62 285.831 172.89 290.088C174.608 293.31 173.028 298.964 171.619 302.09C170.063 305.545 170.422 308.562 169.981 312.213C169.084 316.674 165.67 323.671 167.733 328.166C169.548 332.121 175.975 327.161 179.298 328.221C183.762 332.296 172.438 339.175 168.19 339.596C158.727 340.844 159.164 334.154 159.993 327.067C160.564 321.266 161.344 316.191 162.75 310.469C163.501 307.413 164.519 300.558 163.582 297.48C163.042 295.705 160.055 294.717 158.393 294.169C156.215 294.882 150.455 297.081 149.043 293.933C146.426 288.096 153.871 288.735 157.084 287.479C158.894 286.771 161.214 285.491 163.046 284.55Z"/><path fill="#E90010" d="M270.081 356.363C273.697 356.392 288.108 356.437 288.95 363.499C289.136 365.057 285.533 366.543 284.09 367.155C276.511 370.37 269.09 366.154 261.472 366.019C258.811 365.985 254.916 367.325 252.142 367.599C247.874 368.274 244.941 368.424 240.632 368.432C236.343 368.239 225.275 367.713 222.588 363.951C222.577 363.361 222.613 363.122 223.123 362.701C227.361 359.195 232.836 356.506 238.418 358.213C241.723 359.158 245.35 361.63 248.882 361.178C251.794 360.806 255.047 359.225 257.84 358.237C262.042 356.75 265.727 356.498 270.081 356.363Z"/><path fill="#E90010" d="M264.219 248.356C274.027 248.756 278.108 257.781 270.793 265.372C278.769 268.69 278.072 273.884 271.021 277.815C268.128 279.105 260.095 280.966 257.419 279.084C255.973 276.714 257.528 253.293 257.874 249.285C260.26 248.564 261.75 248.488 264.219 248.356Z"/><path fill="white" d="M261.43 252.275C262.589 252.265 264.164 252.185 265.261 252.46C270.648 253.807 272.808 257.483 268.766 261.812C265.826 263.857 264.487 263.615 260.985 263.522C261.223 259.836 261.302 255.979 261.43 252.275Z"/><path fill="white" d="M260.62 267.455C265.506 267.651 269.362 267.87 273.182 271.274C271.912 272.547 271.526 272.926 270.04 273.93C266.811 275.514 264.122 275.65 260.563 276.032C260.542 273.173 260.56 270.314 260.62 267.455Z"/><path fill="#E90010" d="M256.92 286.21C257.546 286.238 257.732 286.275 258.348 286.366C261.375 288.413 264.374 304.598 265.356 308.787C266.612 305.654 267.74 302.471 268.736 299.246C269.767 295.97 270.696 292.591 272.153 289.471C273.36 286.641 276.339 285.424 277.053 289.41C278.394 296.892 279.28 304.227 281.304 311.602C283.888 303.974 287.331 296.535 289.521 288.718C290.145 286.489 291.577 285.42 293.591 287.067C294.124 288.439 292.9 291.175 292.373 292.688C290.235 299.037 287.366 305.192 284.997 311.467C284.235 313.486 283.066 317.386 280.828 317.89C276.82 317.228 274.715 298.994 274.568 295.249C273.082 299.565 271.68 303.752 269.88 307.953C269.238 309.45 267.939 312.448 267.875 313.959C267.752 316.85 265.977 317.79 263.593 316.391C263.06 316.073 262.495 312.802 262.256 312.045C261.316 308.194 260.533 304.114 259.455 300.276C258.817 297.791 255.822 289.511 255.727 287.622C256.157 286.617 255.981 286.95 256.92 286.21Z"/><path fill="#E90010" d="M289.636 258.597C292.639 258.708 294.467 259.521 296.551 261.588L296.416 262.032C294.966 266.68 295.189 272.363 297.129 276.858C297.601 277.95 297.895 279.84 296.434 280.222C294.789 279.803 294.447 279.336 293.381 277.996C292.195 278.627 290.95 279.073 289.697 279.564C275.287 282.926 275.236 260.078 289.636 258.597Z"/><path fill="white" d="M288.321 262.299C289.642 262.177 290.763 261.925 291.831 262.709C292.06 263.716 291.998 266.769 292.032 268.004C292.075 270.25 292.24 272.492 292.527 274.72C290.311 276.115 289.812 276.402 287.215 276.694C280.229 275.634 281.736 265.266 288.321 262.299Z"/><path fill="#E90010" d="M314.686 178.704C321.182 179.583 311.508 193.982 309.773 196.196C305.545 201.594 298.415 210.619 290.694 209.706C289.139 209.016 287.277 207.356 287.894 205.493C289.106 201.836 293.803 200.84 296.521 198.738C299.948 196.086 303.263 192.718 306.213 189.535C309.201 185.751 309.636 181.326 314.686 178.704Z"/><path fill="#E90010" d="M315.676 205.968C316.537 205.983 316.49 205.943 317.182 206.441C319.106 209.7 312.736 217.494 310.559 219.76C306.11 224.388 298.53 232.068 291.474 230.84C286.838 228.8 288.416 223.65 292.596 222.048C295.262 220.988 297.916 220.201 300.414 218.763C306.015 215.54 310.466 209.322 315.676 205.968Z"/><path fill="#E90010" d="M202.24 199.107C214.073 198.384 214.323 210.021 202.708 208.299C198.735 207.71 193.236 207.824 189.199 207.812C186.664 207.808 182.062 208.385 179.979 206.775C179.393 206.322 179.13 205.709 179.032 204.99C178.909 204.085 179.079 203.147 179.685 202.437C180.947 200.961 199.046 199.283 202.24 199.107Z"/><path fill="#E90010" d="M255.35 320.138C258.545 320.965 264.113 333.152 266.201 336.416L266.456 336.81C267.704 333.797 272.177 321.205 274.83 320.364C275.897 320.579 275.659 320.374 276.333 321.032C276.602 321.778 276.717 322.646 276.424 323.389C274.821 327.452 272.9 331.567 271.251 335.615C269.696 339.418 267.906 343.176 265.974 346.803C265.386 347.908 263.591 351.772 262.065 351.277C258.339 350.07 263.583 342.739 264.728 340.714C264.482 340.46 264.247 340.197 264.023 339.924C260.374 335.56 257.487 328.13 253.936 323.332C253.539 322.794 253.612 322.365 253.669 321.739C254.222 320.807 254.412 320.759 255.35 320.138Z"/><path fill="#E90010" d="M298.6 295.184C302.911 295.379 301.215 297.992 301.227 301.113C301.262 310.329 298.699 314.736 309.997 312.114C309.456 307.736 309.598 300.808 310.496 296.422C310.739 295.232 312.242 295.163 313.228 295.65C314.257 297.113 313.863 299.095 313.753 300.938C313.656 303.644 314.214 315.447 313.018 316.872C312.55 317.431 312.293 317.39 311.617 317.453C310.657 317.158 310.483 316.755 309.818 315.925C304.604 317.508 298.274 317.908 297.667 310.853C297.351 307.184 296.375 298.245 298.6 295.184Z"/><path fill="#E90010" d="M281.6 329.184C285.911 329.381 284.215 331.974 284.228 335.08C284.267 344.289 281.677 348.748 292.998 346.114C292.778 344.362 291.505 326.195 296.136 329.432C297.174 331.282 296.876 332.83 296.754 334.938C296.648 337.704 297.244 349.406 296.02 350.873C295.552 351.435 295.295 351.394 294.618 351.458C293.652 351.16 293.483 350.758 292.817 349.918C287.6 351.525 281.273 351.892 280.667 344.854C280.351 341.183 279.375 332.248 281.6 329.184Z"/><path fill="#E90010" d="M153.146 156.313C157.376 156.745 162.375 156.723 166.488 157.757C167.296 157.96 168.727 158.928 168.924 159.805C169.671 163.139 164.569 164.397 162.208 165.066C158.387 165.905 148.631 168.547 147.131 163.288C146.187 159.976 150.125 156.839 153.146 156.313Z"/><path fill="#E90010" d="M328.271 177.165C332.235 178.104 330.372 185.872 329.844 188.731C328.837 194.185 324.74 199.054 320.078 201.879C319.148 202.323 318.838 202.636 318.028 202.057C317.157 199.402 321.384 190.172 322.298 187.045C323.261 183.748 325.462 179.266 328.271 177.165Z"/><path fill="#E90010" d="M165.011 259.578C170.006 260.13 170.6 262.647 171.486 266.925C169.893 271.609 169.725 272.742 164.756 273.96C163.788 273.959 163.351 273.976 162.556 273.422C160.396 271.892 158.92 269.579 158.442 266.975C157.588 262.123 160.771 260.11 165.011 259.578Z"/><path fill="#E90010" d="M227.286 130.316C230.428 130.119 233.695 131.829 236.15 133.686C237.541 134.739 239.778 137.328 237.734 138.903C236.052 140.197 233.192 139.811 231.188 139.719C228.347 139.516 223.97 139.389 221.614 137.892C216.402 134.581 224.145 130.734 227.286 130.316Z"/><path fill="#E90010" d="M302.575 259.179C303.398 259.166 305.38 259.044 305.496 260.248C305.612 262.865 305.62 266.054 305.421 268.643C305.224 271.21 306.026 276.864 304.749 278.853C303.776 278.991 303.763 278.998 302.791 278.887C302.292 278.557 301.995 278.463 301.87 277.761C301.289 274.504 301.27 261.612 302.575 259.179Z"/><path fill="#E90010" d="M303.931 249.868C305.094 249.593 306.265 250.29 306.578 251.443C306.89 252.596 306.231 253.789 305.088 254.138C304.316 254.374 303.477 254.171 302.898 253.608C302.319 253.044 302.093 252.211 302.309 251.432C302.524 250.654 303.145 250.055 303.931 249.868Z"/></svg>